<svg xmlns="http://www.w3.org/2000/svg" width="536" height="535.18" viewBox="0 0 536 535.18"><g transform="translate(-1420.5 -2547.746)"><circle cx="178.394" cy="178.394" r="178.394" transform="translate(1777.289 2904.535) rotate(180)" fill="#fd6145"/><path d="M179.214,356.786V178.395H357.605V356.786Zm-178.392,0v-.027a179.406,179.406,0,0,1,3.626-35.922,177.463,177.463,0,0,1,26.839-63.79,179,179,0,0,1,78.493-64.635,177.353,177.353,0,0,1,33.481-10.392,179.579,179.579,0,0,1,35.953-3.627V356.786ZM179.211,178.395v0h0v-.024a179.655,179.655,0,0,1,3.623-35.925,177.409,177.409,0,0,1,26.842-63.789,178.886,178.886,0,0,1,78.49-64.631,177.592,177.592,0,0,1,33.484-10.4A179.867,179.867,0,0,1,357.605,0V178.395ZM0,178.395v-.028A178.6,178.6,0,0,1,108.958,14.022a177.563,177.563,0,0,1,33.481-10.4A179.809,179.809,0,0,1,178.395,0V178.395Z" transform="translate(1956.5 3082.927) rotate(180)" fill="#290000"/></g></svg>