<svg class="logo" xmlns="http://www.w3.org/2000/svg" width="77.234" height="16.007" viewBox="0 0 77.234 16.007"><path d="M7.983,15.149a3.3,3.3,0,0,1-.968-.275,3.564,3.564,0,0,1-1.148-.836,3.817,3.817,0,0,1-.742-1.215,4.045,4.045,0,0,1-.268-1.467v-.04a4.2,4.2,0,0,1,.257-1.46A3.543,3.543,0,0,1,6.986,7.828a3.33,3.33,0,0,1,1-.273V4a7.727,7.727,0,0,0-2.513.553A7.638,7.638,0,0,0,3.036,6.136,7.234,7.234,0,0,0,.849,11.355V11.4a7.12,7.12,0,0,0,.578,2.858,7.237,7.237,0,0,0,1.59,2.33,7.5,7.5,0,0,0,2.411,1.57,7.767,7.767,0,0,0,2.554.556Z" transform="translate(-0.849 -3.65)" fill="#290000"/><path d="M70.717,8.457a7.256,7.256,0,0,0-1.59-2.33,7.487,7.487,0,0,0-2.414-1.571A7.749,7.749,0,0,0,64.16,4V7.566a3.309,3.309,0,0,1,.947.273,3.722,3.722,0,0,1,1.158.842A3.774,3.774,0,0,1,67.017,9.9a4.044,4.044,0,0,1,.265,1.459V11.4a4.042,4.042,0,0,1-.265,1.459,3.806,3.806,0,0,1-.731,1.206,3.4,3.4,0,0,1-2.126,1.091v3.557a7.658,7.658,0,0,0,4.946-2.136,7.23,7.23,0,0,0,2.188-5.22v-.04A7.128,7.128,0,0,0,70.717,8.457Z" transform="translate(-56.013 -3.65)" fill="#290000"/><path d="M173.753,7.117,169.207,2.57,166.34,5.436l5.054,5.054-5.054,5.054,2.867,2.867,4.546-4.547Z" transform="translate(-145.044 -2.404)" fill="#290000"/><path d="M239.243,5.436,236.377,2.57,231.83,7.117v6.745l4.547,4.549,2.866-2.867-5.054-5.054Z" transform="translate(-202.107 -2.404)" fill="#290000"/><path d="M404.07,8.485l4.338-4.338L405.543,1.28,401.21,5.613Z" transform="translate(-349.693 -1.28)" fill="#290000"/><path d="M341.975,6.329l-.005.005L336.916,1.28,334.05,4.147l5.893,5.893v6.514H344V10.04l.839-.839Z" transform="translate(-291.175 -1.28)" fill="#290000"/><path d="M511.555,11.777a6.452,6.452,0,0,0,1.693.809h.021l2.907-2.9c-.371-.086-.688-.172-.947-.257a4.283,4.283,0,0,1-.75-.3,1.012,1.012,0,0,1-.386-.335.794.794,0,0,1-.112-.425v-.04a.784.784,0,0,1,.355-.643A1.808,1.808,0,0,1,515.4,7.43a6.026,6.026,0,0,1,1.975.354,7.678,7.678,0,0,1,1.5.713l2.429-2.429.024-.035a8.222,8.222,0,0,0-2.583-1.413,10.2,10.2,0,0,0-3.253-.479,7.316,7.316,0,0,0-2.29.333,5.156,5.156,0,0,0-1.731.934,4.033,4.033,0,0,0-1.09,1.442A4.36,4.36,0,0,0,510,8.672v.04a3.69,3.69,0,0,0,.416,1.831A3.658,3.658,0,0,0,511.555,11.777Z" transform="translate(-444.484 -3.772)" fill="#290000"/><path d="M516.9,51.9a3.442,3.442,0,0,0-1.054-1.225,6.592,6.592,0,0,0-1.673-.861c-.4-.145-.839-.277-1.3-.4l-2.952,2.953q.475.127.979.246a12.221,12.221,0,0,1,1.185.314,3.874,3.874,0,0,1,.73.314,1.037,1.037,0,0,1,.374.335.76.76,0,0,1,.1.4v.04a.8.8,0,0,1-.411.717,2.31,2.31,0,0,1-1.206.257,7.185,7.185,0,0,1-4.349-1.513L504.89,55.9a8.783,8.783,0,0,0,3.024,1.771,11.032,11.032,0,0,0,3.618.591,8.25,8.25,0,0,0,2.351-.314,5.275,5.275,0,0,0,1.8-.91,4.176,4.176,0,0,0,1.164-1.446,4.374,4.374,0,0,0,.416-1.943V53.6A3.733,3.733,0,0,0,516.9,51.9Z" transform="translate(-440.032 -43.217)" fill="#290000"/></svg>