<svg xmlns="http://www.w3.org/2000/svg" width="678" height="987.502" viewBox="0 0 678 987.502"><g transform="translate(-124 -6457)"><rect width="678" height="438" transform="translate(124 7006.502)" fill="#290000"/><g transform="translate(-3190.931 -12439)"><rect width="216" height="225" transform="translate(3546 19444.002)" fill="#fff8e6"/><path d="M362.137,362.137H142.046A110.051,110.051,0,0,1,32,252.092V142.046A110.046,110.046,0,0,1,142.046,32H362.137A110.042,110.042,0,0,1,472.183,142.046V252.092A110.046,110.046,0,0,1,362.137,362.137" transform="translate(3401.931 19084.092)" fill="#290000"/><path d="M249.856,151.866a108.969,108.969,0,0,0-16.576-39.355A110.439,110.439,0,0,0,184.867,72.64,109.607,109.607,0,0,0,142.046,64H32a110.656,110.656,0,0,0,2.242,22.174A109.1,109.1,0,0,0,50.818,125.53a110.326,110.326,0,0,0,48.413,39.864,109.085,109.085,0,0,0,20.661,6.41,110.455,110.455,0,0,0,22.154,2.242,110.657,110.657,0,0,0,2.242,22.174,109.1,109.1,0,0,0,16.576,39.355,110.324,110.324,0,0,0,48.413,39.864,109.082,109.082,0,0,0,20.661,6.41,110.455,110.455,0,0,0,22.154,2.242V174.047a110.761,110.761,0,0,0-2.235-22.181" transform="translate(3401.931 19272.189)" fill="#fd6145"/><path d="M261.917,50.235a109.1,109.1,0,0,0-39.355,16.576,110.439,110.439,0,0,0-39.871,48.413,109.674,109.674,0,0,0-6.41,20.654,111.136,111.136,0,0,0-2.235,22.167,110.65,110.65,0,0,0-22.174,2.235,109.107,109.107,0,0,0-39.355,16.576A110.439,110.439,0,0,0,72.646,225.27a109.673,109.673,0,0,0-6.41,20.654A111.137,111.137,0,0,0,64,268.092H174.046a111.734,111.734,0,0,0,22.181-2.235,109.911,109.911,0,0,0,87.865-107.811V48a110.647,110.647,0,0,0-22.174,2.235" transform="translate(3590.023 19178.137)" fill="#fd6145"/><path d="M156.929,43.934a54.486,54.486,0,0,0-8.288-19.678A55.219,55.219,0,0,0,124.434,4.32a55.033,55.033,0,0,0-60.319,11.8A55.58,55.58,0,0,0,57.4,24.266,54.812,54.812,0,0,0,49.118,43.94a55.451,55.451,0,0,0,0,22.171,54.552,54.552,0,0,0,8.288,19.678,55.163,55.163,0,0,0,24.207,19.932,54.54,54.54,0,0,0,10.331,3.205,55.1,55.1,0,0,0,61.777-32.495A54.55,54.55,0,0,0,156.932,66.1a55.6,55.6,0,0,0,0-22.167" transform="translate(3443.336 19006.045)" fill="#290000"/><path d="M265.856,87.866a108.972,108.972,0,0,0-16.576-39.355A110.439,110.439,0,0,0,200.867,8.64,110.066,110.066,0,0,0,80.23,32.244,111.159,111.159,0,0,0,66.8,48.531,109.624,109.624,0,0,0,50.235,87.88a110.9,110.9,0,0,0,.007,44.342,109.1,109.1,0,0,0,16.576,39.355,110.325,110.325,0,0,0,48.413,39.864,109.08,109.08,0,0,0,20.661,6.41,110.19,110.19,0,0,0,123.554-64.989,109.1,109.1,0,0,0,6.417-20.661,111.2,111.2,0,0,0-.007-44.335" transform="translate(3495.977 18896.006)" fill="#fd6145"/><path d="M158.046,0h0a110.562,110.562,0,0,1-2.228,22.16A109.758,109.758,0,0,1,149.4,42.822a110.3,110.3,0,0,1-10.145,18.687A110.058,110.058,0,0,1,125.816,77.8a110.922,110.922,0,0,1-16.287,13.439,109.686,109.686,0,0,1-18.694,10.159,109.69,109.69,0,0,1-20.654,6.417A111.22,111.22,0,0,1,48,110.046V0Z" transform="translate(3495.977 18896)" fill="#290000"/><path d="M174.046,110.046h0a110.513,110.513,0,0,1-22.16-2.235,109.409,109.409,0,0,1-20.661-6.417,109.785,109.785,0,0,1-18.687-10.138A110.922,110.922,0,0,1,96.25,77.816,110.918,110.918,0,0,1,82.811,61.529,110.2,110.2,0,0,1,72.646,42.835a109.154,109.154,0,0,1-6.4-20.654A110.775,110.775,0,0,1,64,0H174.046Z" transform="translate(3590.023 18896)" fill="#290000"/></g></g></svg>