<svg xmlns="http://www.w3.org/2000/svg" width="800" height="640" viewBox="0 0 800 640">
  <g id="Group_2223" data-name="Group 2223" transform="translate(-3185.076 -2036.432)">
    <path id="Path_853" data-name="Path 853" d="M3653.433,2296.432a159.521,159.521,0,0,1,11.643,60,159.521,159.521,0,0,1,11.642-60Z" fill="none"/>
    <path id="Path_854" data-name="Path 854" d="M3765.076,2401.8a40,40,0,1,1-40,0v-45.365h-60v160h160v-160h-60Z" fill="none"/>
    <path id="Path_855" data-name="Path 855" d="M3676.718,2296.432a159.521,159.521,0,0,0-11.642,60h60v-60Z" fill="#290000"/>
    <path id="Path_856" data-name="Path 856" d="M3700.182,2256.432h64.894v100h60v-160A159.694,159.694,0,0,0,3700.182,2256.432Z" fill="#290000"/>
    <path id="Path_857" data-name="Path 857" d="M3665.076,2676.432a160,160,0,0,0,160-160h-160Z" fill="#290000"/>
    <path id="Path_858" data-name="Path 858" d="M3505.076,2356.432a160,160,0,0,0,160,160v-160Z" fill="#290000"/>
    <path id="Path_859" data-name="Path 859" d="M3629.969,2256.432a159.693,159.693,0,0,0-124.893-60v60Z" fill="#fd6145"/>
    <path id="Path_860" data-name="Path 860" d="M3653.433,2296.432H3505.076v60h160A159.521,159.521,0,0,0,3653.433,2296.432Z" fill="#fd6145"/>
    <path id="Path_861" data-name="Path 861" d="M3345.076,2516.432a160,160,0,0,0,160-160h-160Z" fill="#fd6145"/>
    <path id="Path_862" data-name="Path 862" d="M3985.076,2516.432a160,160,0,0,0-160-160v160Z" fill="#290000"/>
    <path id="Path_863" data-name="Path 863" d="M3185.076,2196.432a160,160,0,0,0,160,160v-160Z" fill="#fd6145"/>
    <path id="Path_864" data-name="Path 864" d="M3459.711,2256.432a39.961,39.961,0,1,0,5.365,20A39.973,39.973,0,0,0,3459.711,2256.432Z" fill="#290000"/>
    <path id="Path_865" data-name="Path 865" d="M3765.076,2401.8a40,40,0,1,0,20,34.635A39.8,39.8,0,0,0,3765.076,2401.8Z" fill="#fd6145"/>
    <path id="Path_866" data-name="Path 866" d="M3345.076,2196.432h160v-160A160,160,0,0,0,3345.076,2196.432Z" fill="#fd6145"/>
    <path id="Path_867" data-name="Path 867" d="M3516.6,2416.469h-23.285a159.874,159.874,0,0,1-23.464,40h70.213A159.874,159.874,0,0,1,3516.6,2416.469Z" fill="#290000"/>
    <path id="Path_868" data-name="Path 868" d="M3444.958,2311.1a39.961,39.961,0,0,1-40,0v45.365h40Z" fill="#fd6145"/>
    <path id="Path_869" data-name="Path 869" d="M3444.958,2416.469v-60h-40v100h64.894a159.874,159.874,0,0,0,23.464-40Z" fill="#290000"/>
    <path id="Path_870" data-name="Path 870" d="M3710.323,2456.469a39.968,39.968,0,0,1,0-40h-45.364v40Z" fill="#290000"/>
    <path id="Path_871" data-name="Path 871" d="M3664.959,2456.469v-40H3516.6a159.874,159.874,0,0,0,23.464,40Z" fill="#fd6145"/>
    <path id="Path_872" data-name="Path 872" d="M3653.433,2296.4h23.285a159.857,159.857,0,0,1,23.464-40h-70.213A159.865,159.865,0,0,1,3653.433,2296.4Z" fill="#fd6145"/>
    <path id="Path_873" data-name="Path 873" d="M3725.076,2401.76a39.968,39.968,0,0,1,40,0V2356.4h-40Z" fill="#290000"/>
    <path id="Path_874" data-name="Path 874" d="M3725.076,2296.4v60h40v-100h-64.894a159.857,159.857,0,0,0-23.464,40Z" fill="#fd6145"/>
    <path id="Path_875" data-name="Path 875" d="M3459.711,2256.4a39.961,39.961,0,0,1,0,40h45.365v-40Z" fill="#fd6145"/>
    <path id="Path_876" data-name="Path 876" d="M3505.076,2256.4v40h148.357a159.865,159.865,0,0,0-23.464-40Z" fill="#290000"/>
  </g>
</svg>
