<svg version="1.1" xmlns="http://www.w3.org/2000/svg" xmlns:xlink="http://www.w3.org/1999/xlink" x="0px" y="0px" width="1920px"
	 height="628.8px" viewBox="0 0 1920 628.8" style="overflow:visible;enable-background:new 0 0 1920 628.8;" xml:space="preserve">
<style type="text/css">
	.st0{fill:#FD89D2;}
</style>
<path id="Subtraction_356_2_" class="st0" d="M1920,628.8H0V207.7h0h0c16.2,0,32.3,1.4,48.3,4.3c15.3,2.7,30.4,6.8,45,12.3
	c14.1,5.2,27.7,11.7,40.7,19.4c12.6,7.4,24.5,16,35.5,25.7c10.7,9.4,20.5,19.8,29.3,31.1c8.6,11.1,16,23.1,22.1,35.7
	c6.1,12.6,10.8,25.8,14,39.5c3.2,13.8,4.8,27.8,4.9,42h3c0.1-14,1.7-28,4.9-41.6c3.2-13.6,7.9-26.9,14-39.5
	c6.1-12.6,13.5-24.6,22.1-35.7c8.7-11.3,18.5-21.7,29.3-31.1c11-9.6,22.9-18.2,35.5-25.7c13-7.7,26.6-14.1,40.7-19.4
	c14.6-5.4,29.7-9.5,45-12.3c15.9-2.8,32.1-4.3,48.3-4.3l0,0h240.6v1.4c0.1-14,1.7-27.9,4.9-41.5c3.2-13.6,7.9-26.9,14-39.5
	c6.1-12.6,13.5-24.6,22.1-35.7c8.7-11.3,18.5-21.7,29.3-31.1c11-9.6,22.9-18.2,35.5-25.7c13-7.7,26.6-14.2,40.7-19.4
	c14.6-5.4,29.7-9.5,45-12.3C930.1,1.4,946.3,0,962.5,0v0h0c16.2,0,32.3,1.4,48.3,4.3c15.3,2.7,30.4,6.8,45,12.3
	c14.1,5.2,27.7,11.7,40.7,19.4c12.6,7.4,24.5,16,35.5,25.7c10.7,9.4,20.5,19.8,29.3,31.1c8.6,11.1,16,23.1,22.1,35.7
	c6.1,12.6,10.8,25.8,14,39.5c3.1,13.1,4.7,26.6,4.9,40.1h0c15.9,0.1,31.7,1.5,47.3,4.3c15.3,2.7,30.4,6.8,45,12.3
	c14.1,5.2,27.7,11.7,40.7,19.4c12.6,7.4,24.4,16,35.5,25.7c10.7,9.4,20.5,19.8,29.3,31.1c8.6,11.1,16,23.1,22.1,35.7
	c6.1,12.6,10.8,25.8,14,39.5c2.2,9.5,3.7,19.2,4.4,28.9c0.8-8.9,2.2-17.8,4.2-26.6c3.2-13.6,7.9-26.9,14-39.5
	c6.1-12.6,13.5-24.6,22.1-35.7c8.7-11.3,18.5-21.7,29.3-31.1c11-9.6,22.9-18.2,35.5-25.7c13-7.7,26.6-14.1,40.7-19.4
	c14.6-5.4,29.7-9.5,45-12.3c15.9-2.8,32.1-4.3,48.3-4.3l0,0H1920L1920,628.8L1920,628.8z"/>
</svg>