<svg xmlns="http://www.w3.org/2000/svg" width="976" height="488" viewBox="0 0 976 488"><g transform="translate(-976 -6579.971)"><g transform="translate(-12843 -2035.888)"><g transform="translate(13819 8615.858)"><g transform="translate(0 0)"><path d="M70.792,359.579a8.026,8.026,0,1,1,0,3.211H0v-3.211Zm256.842,77.053a8.027,8.027,0,1,1,0,3.211h-196v-3.211Zm92.784-73.842a8.026,8.026,0,1,1,0-3.211H488v3.211Zm0,25.684a8.026,8.026,0,1,1,0-3.21H488v3.21Zm9.953-183a8.026,8.026,0,1,1,0,3.211H292a8.026,8.026,0,1,1,0-3.21ZM19.424,128.421a8.026,8.026,0,1,1,0,3.211H0v-3.211H19.424ZM317.682,183a8.026,8.026,0,1,1,0-3.211H456.055a8.026,8.026,0,1,1,0,3.211ZM414.158,19.424a8.026,8.026,0,1,1-3.211,0V0h3.211ZM311.421,353.318a8.026,8.026,0,1,1-3.211,0V266.313a8.026,8.026,0,1,1,3.211,0ZM388.474,35.155v93.266H488v3.211H385.263V35.155a8.026,8.026,0,1,1,3.21,0Zm25.684,25.684v41.9H488v3.211H410.947V60.839a8.026,8.026,0,1,1,3.211,0ZM208.684,214.945v118.95h25.684v19.424a8.026,8.026,0,1,1-3.211,0V337.105H205.474V214.945a8.026,8.026,0,1,1,3.211,0Zm-9.471-35.155a8.026,8.026,0,1,1,0,3.211H183v77.053H137.892a8.026,8.026,0,1,1,0-3.211h41.9V179.789h19.424Zm-9.953,208.684a8.026,8.026,0,1,1,0-3.21h93.266V266.313a8.026,8.026,0,1,1,3.211,0V388.474ZM163.576,285.737a8.026,8.026,0,1,1,0-3.211H183v77.053h16.213a8.026,8.026,0,1,1,0,3.211H179.789V285.737ZM105.947,456.055a8.026,8.026,0,1,1-3.211,0V439.842H80.263V488H77.053V436.632h28.895ZM379,282.526a8.026,8.026,0,1,1,0,3.211H362.789V436.632h77.053V488h-3.211V439.842H359.579V282.526Zm41.416-48.158a8.026,8.026,0,1,1,0-3.211h19.424V301.95a8.026,8.026,0,1,1-3.211,0V234.368ZM317.682,388.474a8.026,8.026,0,1,1,0-3.21h16.213V256.842h25.684V234.368H292a8.026,8.026,0,1,1,0-3.211h70.792v28.895H337.105V388.474ZM456.055,51.368a8.026,8.026,0,1,1,0,3.211H436.632V0h3.211V51.368h16.213ZM157.316,163.576v70.792H86.524a8.026,8.026,0,1,1,0-3.211h67.582V163.576a8.026,8.026,0,1,1,3.211,0Zm-70.792-109a8.026,8.026,0,1,1,0-3.211h41.9V0h3.211V54.579ZM183,60.839v45.108H131.632V208.684H112.208a8.026,8.026,0,1,1,0-3.21h16.213V102.737h51.368v-41.9a8.026,8.026,0,1,1,3.211,0Zm-19.424,70.792a8.026,8.026,0,1,1,0-3.211h41.9V60.839a8.026,8.026,0,1,1,3.211,0v70.792ZM189.261,28.895a8.026,8.026,0,1,1,0-3.211h45.108V96.476a8.026,8.026,0,1,1-3.211,0V28.895ZM353.318,462.316a8.026,8.026,0,1,1,0,3.211h-196V488h-3.211V462.316Zm35.155-221.687v16.213h25.684v54.579H388.474v99.526h77.053V488h-3.211V414.158H385.263V308.211h25.684V260.053H385.263V240.629a8.026,8.026,0,1,1,3.21,0ZM86.524,28.895a8.026,8.026,0,1,1,0-3.211h16.213V3.211H77.053V0h28.895V28.895ZM266.313,80.263a8.026,8.026,0,1,1,0-3.211h41.9V0h80.263V3.211H311.421V80.263ZM189.261,3.211A8.028,8.028,0,1,1,173.529,0h3.323a4.816,4.816,0,1,0,9.086,0h99.8V54.579H256.842V35.155a8.026,8.026,0,1,1,3.211,0V51.368h22.474V3.211H189.261Zm0,154.105a8.026,8.026,0,1,1,0-3.211h30.661l51.368-51.368h62.605V35.155a8.026,8.026,0,1,1,3.211,0v70.792H272.622l-51.368,51.368H189.261ZM234.368,301.95a8.026,8.026,0,1,1-3.211,0V179.131l50.71-50.71h77.711V35.155a8.026,8.026,0,1,1,3.211,0v96.476h-79.6l-48.816,48.816Zm25.684,51.368a8.026,8.026,0,1,1-3.211,0V193.579l39.473-39.473H481.74a8.026,8.026,0,0,1,6.26-6.26v3.323a4.816,4.816,0,0,0,0,9.086v3.323a8.026,8.026,0,0,1-6.26-6.261H297.632L260.053,194.9ZM28.895,250.582a8.026,8.026,0,1,1-3.211,0v-5.634l77.053-77.053V77.053h51.368V0h3.211V80.263H105.947v88.948L28.895,246.263ZM80.263,86.524v69.845L3.211,233.421V333.895h41.9a8.026,8.026,0,1,1,0,3.211H0v-105l77.053-77.053V86.524a8.026,8.026,0,1,1,3.211,0ZM54.579,112.208v31.319L0,198.106v-4.527L51.368,142.21v-30a8.026,8.026,0,1,1,3.211,0ZM19.424,51.368a8.026,8.026,0,1,1,0,3.211H15.106L0,69.684V65.174L13.789,51.368ZM446.1,80.263a8.026,8.026,0,1,1,0-3.211h30L488,65.158v4.527L477.421,80.263ZM420.418,337.105a8.026,8.026,0,1,1,0-3.211h41.9V219.263L488,193.579v4.527l-22.474,22.474V337.105ZM86.524,388.474a8.026,8.026,0,1,1,0-3.21h16.213V349L65.158,311.421h-30a8.026,8.026,0,1,1,0-3.211H66.474l39.473,39.473v40.79H86.524Zm241.11,22.474a8.027,8.027,0,1,1,0,3.211H154.105V323.3L90.858,260.053H60.839a8.026,8.026,0,1,1,0-3.211h31.3l65.174,65.174v88.932H327.634Zm-241.11,3.211a8.026,8.026,0,1,1,0-3.211h41.9V336.158L78,285.737H35.155a8.026,8.026,0,1,1,0-3.211H79.316l52.316,52.316v79.316H86.524ZM54.579,63.889v2.584L15.106,105.947H0v-3.211H13.789L51.368,65.158V0h3.211ZM3.211,481.74A8.026,8.026,0,0,1,9.471,488H6.148A4.816,4.816,0,0,0,0,485.062V410.947H28.895V488H25.684V414.158H3.211Zm51.368-94.871V488H51.368V388.474H0v-3.21H54.579ZM27.289,28.895H0V25.684H25.684V0h3.211V28.895Zm438.237-3.211H488v3.211H462.316V0h3.211ZM414.158,463.921V488h-3.211V465.526H388.474V488h-3.21V462.316h28.895ZM0,147.845a8.058,8.058,0,0,1,9.632,7.866A8.026,8.026,0,0,1,0,163.576v-3.323a4.816,4.816,0,1,0,0-9.086ZM128.421,436.632h3.211V488h-3.211ZM189.261,488h-3.323a4.816,4.816,0,0,0-9.086,0h-3.323a8.026,8.026,0,0,1,15.732,0ZM9.471,0A8.058,8.058,0,0,1,0,9.471V6.148A4.816,4.816,0,0,0,6.148,0ZM481.74,0h3.323A4.816,4.816,0,0,0,488,6.148V9.471A8.026,8.026,0,0,1,481.739,0ZM488,481.74v3.323A4.815,4.815,0,0,0,485.062,488H481.74a8.026,8.026,0,0,1,6.26-6.26ZM155.711,160.526a4.816,4.816,0,1,0-4.816-4.816,4.816,4.816,0,0,0,4.816,4.816Zm0-25.684a4.816,4.816,0,1,0-4.816-4.816,4.816,4.816,0,0,0,4.816,4.816Zm25.684,25.684a4.816,4.816,0,1,0-4.816-4.816,4.816,4.816,0,0,0,4.816,4.816Zm25.684,25.684a4.816,4.816,0,1,0-4.816-4.816A4.816,4.816,0,0,0,207.079,186.211Zm0,25.684a4.816,4.816,0,1,0-4.816-4.816A4.816,4.816,0,0,0,207.079,211.895Zm-77.053,51.368a4.816,4.816,0,1,0-4.816-4.816A4.816,4.816,0,0,0,130.026,263.263Zm25.684,25.684a4.816,4.816,0,1,0-4.816-4.816,4.816,4.816,0,0,0,4.816,4.816ZM207.079,366a4.816,4.816,0,1,0-4.816-4.816A4.816,4.816,0,0,0,207.079,366Zm-25.684,25.684a4.816,4.816,0,1,0-4.816-4.816A4.816,4.816,0,0,0,181.395,391.684ZM232.763,366a4.816,4.816,0,1,0-4.816-4.816A4.816,4.816,0,0,0,232.763,366Zm0-51.368a4.816,4.816,0,1,0-4.816-4.816A4.816,4.816,0,0,0,232.763,314.632ZM258.447,366a4.816,4.816,0,1,0-4.816-4.816A4.816,4.816,0,0,0,258.447,366Zm51.368,25.684A4.816,4.816,0,1,0,305,386.868,4.816,4.816,0,0,0,309.816,391.684Zm0-25.684A4.816,4.816,0,1,0,305,361.184,4.816,4.816,0,0,0,309.816,366ZM284.132,263.263a4.816,4.816,0,1,0-4.816-4.816A4.816,4.816,0,0,0,284.132,263.263Zm25.684,0A4.816,4.816,0,1,0,305,258.447,4.816,4.816,0,0,0,309.816,263.263ZM335.5,417.368a4.816,4.816,0,1,0-4.816-4.816,4.816,4.816,0,0,0,4.816,4.816Zm0,25.684a4.816,4.816,0,1,0-4.816-4.816,4.816,4.816,0,0,0,4.816,4.816Zm25.684,25.684a4.816,4.816,0,1,0-4.816-4.816A4.816,4.816,0,0,0,361.184,468.737Zm25.684-231.158a4.816,4.816,0,1,0-4.816-4.816A4.816,4.816,0,0,0,386.868,237.579Zm0,51.368a4.816,4.816,0,1,0-4.816-4.816A4.816,4.816,0,0,0,386.868,288.947Zm25.684-51.368a4.816,4.816,0,1,0-4.816-4.816A4.816,4.816,0,0,0,412.553,237.579Zm25.684-25.684a4.816,4.816,0,1,0-4.816-4.816A4.816,4.816,0,0,0,438.237,211.895Zm-154.105,0a4.816,4.816,0,1,0-4.816-4.816A4.816,4.816,0,0,0,284.132,211.895Zm0,25.684a4.816,4.816,0,1,0-4.816-4.816A4.816,4.816,0,0,0,284.132,237.579Zm25.684-51.368A4.816,4.816,0,1,0,305,181.395,4.816,4.816,0,0,0,309.816,186.211Zm154.105,0a4.816,4.816,0,1,0-4.816-4.816A4.816,4.816,0,0,0,463.921,186.211ZM438.237,83.474a4.816,4.816,0,1,0-4.816-4.816A4.816,4.816,0,0,0,438.237,83.474Zm25.684-25.684a4.816,4.816,0,1,0-4.816-4.816A4.816,4.816,0,0,0,463.921,57.789Zm-51.368,0a4.816,4.816,0,1,0-4.816-4.816A4.816,4.816,0,0,0,412.553,57.789Zm0-25.684a4.816,4.816,0,1,0-4.816-4.816A4.816,4.816,0,0,0,412.553,32.105Zm-25.684,0a4.816,4.816,0,1,0-4.816-4.816A4.816,4.816,0,0,0,386.868,32.105Zm-25.684,0a4.816,4.816,0,1,0-4.816-4.816A4.816,4.816,0,0,0,361.184,32.105Zm-25.684,0a4.816,4.816,0,1,0-4.816-4.816,4.816,4.816,0,0,0,4.816,4.816ZM78.658,57.789a4.816,4.816,0,1,0-4.816-4.816A4.816,4.816,0,0,0,78.658,57.789Zm-51.368,0a4.816,4.816,0,1,0-4.816-4.816A4.816,4.816,0,0,0,27.289,57.789ZM78.658,83.474a4.816,4.816,0,1,0-4.816-4.816A4.816,4.816,0,0,0,78.658,83.474ZM52.974,109.158a4.816,4.816,0,1,0-4.816-4.816A4.816,4.816,0,0,0,52.974,109.158ZM78.658,32.105a4.816,4.816,0,1,0-4.816-4.816A4.816,4.816,0,0,0,78.658,32.105Zm0,385.263a4.816,4.816,0,1,0-4.816-4.816A4.816,4.816,0,0,0,78.658,417.368Zm25.684,51.368a4.816,4.816,0,1,0-4.816-4.816A4.816,4.816,0,0,0,104.342,468.737ZM78.658,366a4.816,4.816,0,1,0-4.816-4.816A4.816,4.816,0,0,0,78.658,366Zm0,25.684a4.816,4.816,0,1,0-4.816-4.816A4.816,4.816,0,0,0,78.658,391.684ZM52.974,340.316a4.816,4.816,0,1,0-4.816-4.816A4.816,4.816,0,0,0,52.974,340.316ZM181.395,57.789a4.816,4.816,0,1,0-4.816-4.816A4.816,4.816,0,0,0,181.395,57.789Zm25.684,0a4.816,4.816,0,1,0-4.816-4.816A4.816,4.816,0,0,0,207.079,57.789ZM181.395,32.105a4.816,4.816,0,1,0-4.816-4.816A4.816,4.816,0,0,0,181.395,32.105Zm51.368,77.053a4.816,4.816,0,1,0-4.816-4.816A4.816,4.816,0,0,0,232.763,109.158Zm25.684-25.684a4.816,4.816,0,1,0-4.816-4.816A4.816,4.816,0,0,0,258.447,83.474Zm0-51.368a4.816,4.816,0,1,0-4.816-4.816A4.816,4.816,0,0,0,258.447,32.105ZM438.237,314.632a4.816,4.816,0,1,0-4.816-4.816A4.816,4.816,0,0,0,438.237,314.632Zm-25.684,25.684a4.816,4.816,0,1,0-4.816-4.816A4.816,4.816,0,0,0,412.553,340.316Zm0,25.684a4.816,4.816,0,1,0-4.816-4.816A4.816,4.816,0,0,0,412.553,366Zm0,25.684a4.816,4.816,0,1,0-4.816-4.816A4.816,4.816,0,0,0,412.553,391.684ZM27.289,288.947a4.816,4.816,0,1,0-4.816-4.816A4.816,4.816,0,0,0,27.289,288.947Zm0,25.684a4.816,4.816,0,1,0-4.816-4.816A4.816,4.816,0,0,0,27.289,314.632Zm0-51.368a4.816,4.816,0,1,0-4.816-4.816A4.816,4.816,0,0,0,27.289,263.263Zm25.684,0a4.816,4.816,0,1,0-4.816-4.816A4.816,4.816,0,0,0,52.974,263.263ZM27.289,134.842a4.816,4.816,0,1,0-4.816-4.816A4.816,4.816,0,0,0,27.289,134.842ZM78.658,237.579a4.816,4.816,0,1,0-4.816-4.816A4.816,4.816,0,0,0,78.658,237.579Zm25.684-25.684a4.816,4.816,0,1,0-4.816-4.816A4.816,4.816,0,0,0,104.342,211.895Z" transform="translate(0 0)" fill="#fd89d2"/><path d="M70.792,359.579a8.026,8.026,0,1,1,0,3.211H0v-3.211Zm256.842,77.053a8.027,8.027,0,1,1,0,3.211h-196v-3.211Zm92.784-73.842a8.026,8.026,0,1,1,0-3.211H488v3.211Zm0,25.684a8.026,8.026,0,1,1,0-3.21H488v3.21Zm9.953-183a8.026,8.026,0,1,1,0,3.211H292a8.026,8.026,0,1,1,0-3.21ZM19.424,128.421a8.026,8.026,0,1,1,0,3.211H0v-3.211H19.424ZM317.682,183a8.026,8.026,0,1,1,0-3.211H456.055a8.026,8.026,0,1,1,0,3.211ZM414.158,19.424a8.026,8.026,0,1,1-3.211,0V0h3.211ZM311.421,353.318a8.026,8.026,0,1,1-3.211,0V266.313a8.026,8.026,0,1,1,3.211,0ZM388.474,35.155v93.266H488v3.211H385.263V35.155a8.026,8.026,0,1,1,3.21,0Zm25.684,25.684v41.9H488v3.211H410.947V60.839a8.026,8.026,0,1,1,3.211,0ZM208.684,214.945v118.95h25.684v19.424a8.026,8.026,0,1,1-3.211,0V337.105H205.474V214.945a8.026,8.026,0,1,1,3.211,0Zm-9.471-35.155a8.026,8.026,0,1,1,0,3.211H183v77.053H137.892a8.026,8.026,0,1,1,0-3.211h41.9V179.789h19.424Zm-9.953,208.684a8.026,8.026,0,1,1,0-3.21h93.266V266.313a8.026,8.026,0,1,1,3.211,0V388.474ZM163.576,285.737a8.026,8.026,0,1,1,0-3.211H183v77.053h16.213a8.026,8.026,0,1,1,0,3.211H179.789V285.737ZM105.947,456.055a8.026,8.026,0,1,1-3.211,0V439.842H80.263V488H77.053V436.632h28.895ZM379,282.526a8.026,8.026,0,1,1,0,3.211H362.789V436.632h77.053V488h-3.211V439.842H359.579V282.526Zm41.416-48.158a8.026,8.026,0,1,1,0-3.211h19.424V301.95a8.026,8.026,0,1,1-3.211,0V234.368ZM317.682,388.474a8.026,8.026,0,1,1,0-3.21h16.213V256.842h25.684V234.368H292a8.026,8.026,0,1,1,0-3.211h70.792v28.895H337.105V388.474ZM456.055,51.368a8.026,8.026,0,1,1,0,3.211H436.632V0h3.211V51.368h16.213ZM157.316,163.576v70.792H86.524a8.026,8.026,0,1,1,0-3.211h67.582V163.576a8.026,8.026,0,1,1,3.211,0Zm-70.792-109a8.026,8.026,0,1,1,0-3.211h41.9V0h3.211V54.579ZM183,60.839v45.108H131.632V208.684H112.208a8.026,8.026,0,1,1,0-3.21h16.213V102.737h51.368v-41.9a8.026,8.026,0,1,1,3.211,0Zm-19.424,70.792a8.026,8.026,0,1,1,0-3.211h41.9V60.839a8.026,8.026,0,1,1,3.211,0v70.792ZM189.261,28.895a8.026,8.026,0,1,1,0-3.211h45.108V96.476a8.026,8.026,0,1,1-3.211,0V28.895ZM353.318,462.316a8.026,8.026,0,1,1,0,3.211h-196V488h-3.211V462.316Zm35.155-221.687v16.213h25.684v54.579H388.474v99.526h77.053V488h-3.211V414.158H385.263V308.211h25.684V260.053H385.263V240.629a8.026,8.026,0,1,1,3.21,0ZM86.524,28.895a8.026,8.026,0,1,1,0-3.211h16.213V3.211H77.053V0h28.895V28.895ZM266.313,80.263a8.026,8.026,0,1,1,0-3.211h41.9V0h80.263V3.211H311.421V80.263ZM189.261,3.211A8.028,8.028,0,1,1,173.529,0h3.323a4.816,4.816,0,1,0,9.086,0h99.8V54.579H256.842V35.155a8.026,8.026,0,1,1,3.211,0V51.368h22.474V3.211H189.261Zm0,154.105a8.026,8.026,0,1,1,0-3.211h30.661l51.368-51.368h62.605V35.155a8.026,8.026,0,1,1,3.211,0v70.792H272.622l-51.368,51.368H189.261ZM234.368,301.95a8.026,8.026,0,1,1-3.211,0V179.131l50.71-50.71h77.711V35.155a8.026,8.026,0,1,1,3.211,0v96.476h-79.6l-48.816,48.816Zm25.684,51.368a8.026,8.026,0,1,1-3.211,0V193.579l39.473-39.473H481.74a8.026,8.026,0,0,1,6.26-6.26v3.323a4.816,4.816,0,0,0,0,9.086v3.323a8.026,8.026,0,0,1-6.26-6.261H297.632L260.053,194.9ZM28.895,250.582a8.026,8.026,0,1,1-3.211,0v-5.634l77.053-77.053V77.053h51.368V0h3.211V80.263H105.947v88.948L28.895,246.263ZM80.263,86.524v69.845L3.211,233.421V333.895h41.9a8.026,8.026,0,1,1,0,3.211H0v-105l77.053-77.053V86.524a8.026,8.026,0,1,1,3.211,0ZM54.579,112.208v31.319L0,198.106v-4.527L51.368,142.21v-30a8.026,8.026,0,1,1,3.211,0ZM19.424,51.368a8.026,8.026,0,1,1,0,3.211H15.106L0,69.684V65.174L13.789,51.368ZM446.1,80.263a8.026,8.026,0,1,1,0-3.211h30L488,65.158v4.527L477.421,80.263ZM420.418,337.105a8.026,8.026,0,1,1,0-3.211h41.9V219.263L488,193.579v4.527l-22.474,22.474V337.105ZM86.524,388.474a8.026,8.026,0,1,1,0-3.21h16.213V349L65.158,311.421h-30a8.026,8.026,0,1,1,0-3.211H66.474l39.473,39.473v40.79H86.524Zm241.11,22.474a8.027,8.027,0,1,1,0,3.211H154.105V323.3L90.858,260.053H60.839a8.026,8.026,0,1,1,0-3.211h31.3l65.174,65.174v88.932H327.634Zm-241.11,3.211a8.026,8.026,0,1,1,0-3.211h41.9V336.158L78,285.737H35.155a8.026,8.026,0,1,1,0-3.211H79.316l52.316,52.316v79.316H86.524ZM54.579,63.889v2.584L15.106,105.947H0v-3.211H13.789L51.368,65.158V0h3.211ZM3.211,481.74A8.026,8.026,0,0,1,9.471,488H6.148A4.816,4.816,0,0,0,0,485.062V410.947H28.895V488H25.684V414.158H3.211Zm51.368-94.871V488H51.368V388.474H0v-3.21H54.579ZM27.289,28.895H0V25.684H25.684V0h3.211V28.895Zm438.237-3.211H488v3.211H462.316V0h3.211ZM414.158,463.921V488h-3.211V465.526H388.474V488h-3.21V462.316h28.895ZM0,147.845a8.058,8.058,0,0,1,9.632,7.866A8.026,8.026,0,0,1,0,163.576v-3.323a4.816,4.816,0,1,0,0-9.086ZM128.421,436.632h3.211V488h-3.211ZM189.261,488h-3.323a4.816,4.816,0,0,0-9.086,0h-3.323a8.026,8.026,0,0,1,15.732,0ZM9.471,0A8.058,8.058,0,0,1,0,9.471V6.148A4.816,4.816,0,0,0,6.148,0ZM481.74,0h3.323A4.816,4.816,0,0,0,488,6.148V9.471A8.026,8.026,0,0,1,481.739,0ZM488,481.74v3.323A4.815,4.815,0,0,0,485.062,488H481.74a8.026,8.026,0,0,1,6.26-6.26ZM155.711,160.526a4.816,4.816,0,1,0-4.816-4.816,4.816,4.816,0,0,0,4.816,4.816Zm0-25.684a4.816,4.816,0,1,0-4.816-4.816,4.816,4.816,0,0,0,4.816,4.816Zm25.684,25.684a4.816,4.816,0,1,0-4.816-4.816,4.816,4.816,0,0,0,4.816,4.816Zm25.684,25.684a4.816,4.816,0,1,0-4.816-4.816A4.816,4.816,0,0,0,207.079,186.211Zm0,25.684a4.816,4.816,0,1,0-4.816-4.816A4.816,4.816,0,0,0,207.079,211.895Zm-77.053,51.368a4.816,4.816,0,1,0-4.816-4.816A4.816,4.816,0,0,0,130.026,263.263Zm25.684,25.684a4.816,4.816,0,1,0-4.816-4.816,4.816,4.816,0,0,0,4.816,4.816ZM207.079,366a4.816,4.816,0,1,0-4.816-4.816A4.816,4.816,0,0,0,207.079,366Zm-25.684,25.684a4.816,4.816,0,1,0-4.816-4.816A4.816,4.816,0,0,0,181.395,391.684ZM232.763,366a4.816,4.816,0,1,0-4.816-4.816A4.816,4.816,0,0,0,232.763,366Zm0-51.368a4.816,4.816,0,1,0-4.816-4.816A4.816,4.816,0,0,0,232.763,314.632ZM258.447,366a4.816,4.816,0,1,0-4.816-4.816A4.816,4.816,0,0,0,258.447,366Zm51.368,25.684A4.816,4.816,0,1,0,305,386.868,4.816,4.816,0,0,0,309.816,391.684Zm0-25.684A4.816,4.816,0,1,0,305,361.184,4.816,4.816,0,0,0,309.816,366ZM284.132,263.263a4.816,4.816,0,1,0-4.816-4.816A4.816,4.816,0,0,0,284.132,263.263Zm25.684,0A4.816,4.816,0,1,0,305,258.447,4.816,4.816,0,0,0,309.816,263.263ZM335.5,417.368a4.816,4.816,0,1,0-4.816-4.816,4.816,4.816,0,0,0,4.816,4.816Zm0,25.684a4.816,4.816,0,1,0-4.816-4.816,4.816,4.816,0,0,0,4.816,4.816Zm25.684,25.684a4.816,4.816,0,1,0-4.816-4.816A4.816,4.816,0,0,0,361.184,468.737Zm25.684-231.158a4.816,4.816,0,1,0-4.816-4.816A4.816,4.816,0,0,0,386.868,237.579Zm0,51.368a4.816,4.816,0,1,0-4.816-4.816A4.816,4.816,0,0,0,386.868,288.947Zm25.684-51.368a4.816,4.816,0,1,0-4.816-4.816A4.816,4.816,0,0,0,412.553,237.579Zm25.684-25.684a4.816,4.816,0,1,0-4.816-4.816A4.816,4.816,0,0,0,438.237,211.895Zm-154.105,0a4.816,4.816,0,1,0-4.816-4.816A4.816,4.816,0,0,0,284.132,211.895Zm0,25.684a4.816,4.816,0,1,0-4.816-4.816A4.816,4.816,0,0,0,284.132,237.579Zm25.684-51.368A4.816,4.816,0,1,0,305,181.395,4.816,4.816,0,0,0,309.816,186.211Zm154.105,0a4.816,4.816,0,1,0-4.816-4.816A4.816,4.816,0,0,0,463.921,186.211ZM438.237,83.474a4.816,4.816,0,1,0-4.816-4.816A4.816,4.816,0,0,0,438.237,83.474Zm25.684-25.684a4.816,4.816,0,1,0-4.816-4.816A4.816,4.816,0,0,0,463.921,57.789Zm-51.368,0a4.816,4.816,0,1,0-4.816-4.816A4.816,4.816,0,0,0,412.553,57.789Zm0-25.684a4.816,4.816,0,1,0-4.816-4.816A4.816,4.816,0,0,0,412.553,32.105Zm-25.684,0a4.816,4.816,0,1,0-4.816-4.816A4.816,4.816,0,0,0,386.868,32.105Zm-25.684,0a4.816,4.816,0,1,0-4.816-4.816A4.816,4.816,0,0,0,361.184,32.105Zm-25.684,0a4.816,4.816,0,1,0-4.816-4.816,4.816,4.816,0,0,0,4.816,4.816ZM78.658,57.789a4.816,4.816,0,1,0-4.816-4.816A4.816,4.816,0,0,0,78.658,57.789Zm-51.368,0a4.816,4.816,0,1,0-4.816-4.816A4.816,4.816,0,0,0,27.289,57.789ZM78.658,83.474a4.816,4.816,0,1,0-4.816-4.816A4.816,4.816,0,0,0,78.658,83.474ZM52.974,109.158a4.816,4.816,0,1,0-4.816-4.816A4.816,4.816,0,0,0,52.974,109.158ZM78.658,32.105a4.816,4.816,0,1,0-4.816-4.816A4.816,4.816,0,0,0,78.658,32.105Zm0,385.263a4.816,4.816,0,1,0-4.816-4.816A4.816,4.816,0,0,0,78.658,417.368Zm25.684,51.368a4.816,4.816,0,1,0-4.816-4.816A4.816,4.816,0,0,0,104.342,468.737ZM78.658,366a4.816,4.816,0,1,0-4.816-4.816A4.816,4.816,0,0,0,78.658,366Zm0,25.684a4.816,4.816,0,1,0-4.816-4.816A4.816,4.816,0,0,0,78.658,391.684ZM52.974,340.316a4.816,4.816,0,1,0-4.816-4.816A4.816,4.816,0,0,0,52.974,340.316ZM181.395,57.789a4.816,4.816,0,1,0-4.816-4.816A4.816,4.816,0,0,0,181.395,57.789Zm25.684,0a4.816,4.816,0,1,0-4.816-4.816A4.816,4.816,0,0,0,207.079,57.789ZM181.395,32.105a4.816,4.816,0,1,0-4.816-4.816A4.816,4.816,0,0,0,181.395,32.105Zm51.368,77.053a4.816,4.816,0,1,0-4.816-4.816A4.816,4.816,0,0,0,232.763,109.158Zm25.684-25.684a4.816,4.816,0,1,0-4.816-4.816A4.816,4.816,0,0,0,258.447,83.474Zm0-51.368a4.816,4.816,0,1,0-4.816-4.816A4.816,4.816,0,0,0,258.447,32.105ZM438.237,314.632a4.816,4.816,0,1,0-4.816-4.816A4.816,4.816,0,0,0,438.237,314.632Zm-25.684,25.684a4.816,4.816,0,1,0-4.816-4.816A4.816,4.816,0,0,0,412.553,340.316Zm0,25.684a4.816,4.816,0,1,0-4.816-4.816A4.816,4.816,0,0,0,412.553,366Zm0,25.684a4.816,4.816,0,1,0-4.816-4.816A4.816,4.816,0,0,0,412.553,391.684ZM27.289,288.947a4.816,4.816,0,1,0-4.816-4.816A4.816,4.816,0,0,0,27.289,288.947Zm0,25.684a4.816,4.816,0,1,0-4.816-4.816A4.816,4.816,0,0,0,27.289,314.632Zm0-51.368a4.816,4.816,0,1,0-4.816-4.816A4.816,4.816,0,0,0,27.289,263.263Zm25.684,0a4.816,4.816,0,1,0-4.816-4.816A4.816,4.816,0,0,0,52.974,263.263ZM27.289,134.842a4.816,4.816,0,1,0-4.816-4.816A4.816,4.816,0,0,0,27.289,134.842ZM78.658,237.579a4.816,4.816,0,1,0-4.816-4.816A4.816,4.816,0,0,0,78.658,237.579Zm25.684-25.684a4.816,4.816,0,1,0-4.816-4.816A4.816,4.816,0,0,0,104.342,211.895Z" transform="translate(488 0)" fill="#fd89d2"/></g></g><rect width="975.706" height="487.853" transform="translate(13819 8615.95)" fill="rgba(255,255,255,0)"/></g></g></svg>