<svg class="logo-square" xmlns="http://www.w3.org/2000/svg" width="64.035" height="63.424" viewBox="0 0 64.035 63.424"><g transform="translate(22621.001 288)"><path d="M13.15,23.224a5.688,5.688,0,0,1-1.669-.475A6.145,6.145,0,0,1,9.5,21.307a6.581,6.581,0,0,1-1.28-2.095,6.975,6.975,0,0,1-.462-2.529v-.069A7.24,7.24,0,0,1,8.2,14.1,6.109,6.109,0,0,1,11.431,10.6a5.741,5.741,0,0,1,1.72-.47V4a13.325,13.325,0,0,0-4.333.954,13.171,13.171,0,0,0-4.2,2.729,12.474,12.474,0,0,0-3.772,9v.071a12.278,12.278,0,0,0,1,4.928A12.479,12.479,0,0,0,4.588,25.7a12.93,12.93,0,0,0,4.158,2.707,13.392,13.392,0,0,0,4.4.959Z" transform="translate(-22621.85 -291.683)" fill="#290000"/><path d="M75.467,11.686a12.512,12.512,0,0,0-2.742-4.018,12.91,12.91,0,0,0-4.163-2.709A13.362,13.362,0,0,0,64.16,4v6.148a5.706,5.706,0,0,1,1.633.47,6.418,6.418,0,0,1,2,1.451,6.508,6.508,0,0,1,1.3,2.1,6.974,6.974,0,0,1,.457,2.516v.071a6.969,6.969,0,0,1-.457,2.516,6.562,6.562,0,0,1-1.26,2.079,5.864,5.864,0,0,1-3.666,1.882v6.133a13.205,13.205,0,0,0,8.529-3.683,12.468,12.468,0,0,0,3.772-9V16.61A12.291,12.291,0,0,0,75.467,11.686Z" transform="translate(-22671.113 -291.683)" fill="#290000"/><path d="M179.123,10.411,171.284,2.57,166.34,7.511l8.716,8.716-8.716,8.716,4.944,4.944,7.839-7.841Z" transform="translate(-22750.621 -290.57)" fill="#290000"/><path d="M244.613,7.511,239.671,2.57l-7.841,7.841V22.043l7.841,7.844,4.941-4.944L235.9,16.227Z" transform="translate(-22801.578 -290.57)" fill="#290000"/><path d="M406.143,13.7l7.48-7.48L408.681,1.28,401.21,8.751Z" transform="translate(-23004.889 -252.193)" fill="#290000"/><path d="M347.716,9.987l-.009.009L338.991,1.28,334.05,6.224l10.162,10.162V27.618H351.2V16.386l1.447-1.447Z" transform="translate(-22952.629 -252.193)" fill="#290000"/><path d="M512.682,17.309a11.127,11.127,0,0,0,2.92,1.4h.036l5.012-4.992c-.639-.149-1.187-.3-1.633-.444a7.385,7.385,0,0,1-1.294-.524,1.745,1.745,0,0,1-.666-.577,1.369,1.369,0,0,1-.193-.732v-.069a1.351,1.351,0,0,1,.612-1.109,3.117,3.117,0,0,1,1.835-.444,10.39,10.39,0,0,1,3.406.61,13.239,13.239,0,0,1,2.592,1.229L529.5,7.464l.042-.06a14.175,14.175,0,0,0-4.453-2.436,17.6,17.6,0,0,0-5.609-.825,12.616,12.616,0,0,0-3.95.575,8.891,8.891,0,0,0-2.984,1.611,6.954,6.954,0,0,0-1.879,2.487,7.518,7.518,0,0,0-.666,3.14v.069a6.363,6.363,0,0,0,.717,3.157A6.308,6.308,0,0,0,512.682,17.309Z" transform="translate(-23089.539 -254.419)" fill="#290000"/><path d="M525.605,53.7a5.935,5.935,0,0,0-1.817-2.112A11.367,11.367,0,0,0,520.9,50.1c-.694-.251-1.447-.477-2.245-.69l-5.09,5.092q.819.22,1.689.424a21.079,21.079,0,0,1,2.044.541,6.683,6.683,0,0,1,1.258.541,1.788,1.788,0,0,1,.646.577,1.311,1.311,0,0,1,.175.681v.069a1.376,1.376,0,0,1-.708,1.236,3.983,3.983,0,0,1-2.079.444,12.391,12.391,0,0,1-7.5-2.609l-4.2,4.191a15.146,15.146,0,0,0,5.214,3.053,19.022,19.022,0,0,0,6.239,1.018,14.225,14.225,0,0,0,4.054-.541,9.1,9.1,0,0,0,3.106-1.569,7.2,7.2,0,0,0,2.008-2.494,7.541,7.541,0,0,0,.717-3.35v-.073A6.434,6.434,0,0,0,525.605,53.7Z" transform="translate(-23085.563 -289.644)" fill="#290000"/></g></svg>