<svg xmlns="http://www.w3.org/2000/svg" width="1280" height="640" viewBox="0 0 1280 640"><g transform="translate(2699.083 581.861)"><rect width="1280" height="640" transform="translate(-2699.083 -581.861)" fill="#031798"/><rect width="320" height="320" transform="translate(-2699.083 -581.861)" fill="#fff8e6"/><rect width="320" height="320" transform="translate(-2379.083 -581.861)" fill="#031798"/><rect width="320" height="320" transform="translate(-2059.083 -581.861)" fill="#031798"/><rect width="320" height="320" transform="translate(-1739.083 -581.861)" fill="#031798"/><rect width="320" height="320" transform="translate(-2699.083 -261.861)" fill="#fd89d2"/><rect width="320" height="320" transform="translate(-2379.083 -261.861)" fill="#031798"/><rect width="320" height="320" transform="translate(-2059.083 -261.861)" fill="#fff8e6"/><rect width="320" height="320" transform="translate(-1739.083 -261.861)" fill="#fd89d2"/><path d="M-2539.083-261.861h-160a160,160,0,0,0,160,160Z" fill="#031798"/><path d="M-2379.083-101.861v-160a160,160,0,0,0-160,160Z" fill="#031798"/><path d="M-2379.083-581.861h-160a160,160,0,0,0,160,160Z" fill="#031798"/><path d="M-2379.083-581.861v160a160,160,0,0,0,160-160Z" fill="#fd89d2"/><path d="M-2059.083-261.861h160a160,160,0,0,0-160-160Z" fill="#fd89d2"/><path d="M-2059.083-261.861v160a160,160,0,0,0,160-160Z" fill="#031798"/><path d="M-2699.083-261.861h160a160,160,0,0,0-160-160Z" fill="#031798"/><path d="M-2379.083-101.861h160a160,160,0,0,0-160-160Z" fill="#fff8e6"/><path d="M-1579.083-261.861v-160a160,160,0,0,0-160,160Z" fill="#fff8e6"/><path d="M-1579.083-581.861v160a160,160,0,0,0,160-160Z" fill="#fff8e6"/><path d="M-2059.083,58.139v-160a160,160,0,0,0-160,160Z" fill="#fff8e6"/><path d="M-1739.083,58.139v-160a160,160,0,0,0-160,160Z" fill="#031798"/><path d="M-1739.083-101.861v160a160,160,0,0,0,160-160Z" fill="#031798"/><path d="M-1579.083-261.861h-160a160,160,0,0,0,160,160Z" fill="#031798"/><circle cx="80" cy="80" r="80" transform="translate(-2699.083 -101.861)" fill="#031798"/><circle cx="80" cy="80" r="80" transform="translate(-2219.083 -421.861)" fill="#fd89d2"/><circle cx="80" cy="80" r="80" transform="translate(-1899.083 -581.861)" fill="#fd89d2"/></g></svg>