<svg xmlns="http://www.w3.org/2000/svg" xmlns:xlink="http://www.w3.org/1999/xlink" width="2184" height="960" viewBox="0 0 2184 960">
  <defs>
    <clipPath id="clip-path">
      <rect id="Rectangle_1361" data-name="Rectangle 1361" width="2184" height="960" transform="translate(-13653 -11423)" fill="#fff" stroke="#707070" stroke-width="1"/>
    </clipPath>
  </defs>
  <g id="Mask_Group_77" data-name="Mask Group 77" transform="translate(13653 11423)" clip-path="url(#clip-path)">
    <g id="Group_2213" data-name="Group 2213" transform="translate(-9782.08 -14523.891)">
      <g id="Group_2210" data-name="Group 2210">
        <path id="Path_790" data-name="Path 790" d="M-2778.92,3100.89a160,160,0,0,0-160,160v320a160,160,0,0,1-160,160,160,160,0,0,1-160-160v-320a160,160,0,0,0-160-160,160,160,0,0,0-160,160v337.2h.309c9.056,257.13,220.352,462.8,479.691,462.8,265.1,0,480-214.9,480-480v-320A160,160,0,0,0-2778.92,3100.89Z" fill="#031798"/>
        <g id="Group_2209" data-name="Group 2209">
          <path id="Path_791" data-name="Path 791" d="M-3418.92,3100.89a160,160,0,0,0-160,160v177.2a40,40,0,0,1,40-40,40,40,0,0,1,40,40v130a39.912,39.912,0,0,0,2.1,12.8,40.036,40.036,0,0,0,11.452,17.2,39.836,39.836,0,0,0,26.443,10,39.836,39.836,0,0,0,26.443-10,40.039,40.039,0,0,0,11.452-17.2,39.919,39.919,0,0,0,2.1-12.8v-60a40,40,0,0,1,40-40,40,40,0,0,1,40,40v50a39.8,39.8,0,0,0,7.143,22.8,39.944,39.944,0,0,0,32.857,17.2,39.944,39.944,0,0,0,32.857-17.2,39.8,39.8,0,0,0,7.143-22.8v-297.2A160,160,0,0,0-3418.92,3100.89Zm40,317.2a40.19,40.19,0,0,1-6.975-.619,40,40,0,0,1-33.025-39.381,40,40,0,0,1,40-40,40,40,0,0,1,40,40A39.851,39.851,0,0,1-3349.327,3405,39.9,39.9,0,0,1-3378.92,3418.089Z" fill="#fd89d2"/>
          <g id="Group_2208" data-name="Group 2208">
            <path id="Path_792" data-name="Path 792" d="M-2778.92,3100.89a160,160,0,0,0-160,160v202.2h.322a40,40,0,0,1,39.678-35,40,40,0,0,1,39.678,35h.322v113.557a40.473,40.473,0,0,0,.226,4.244,40,40,0,0,0,39.774,35.756,40,40,0,0,0,39.774-35.756,40.473,40.473,0,0,0,.226-4.244v-18.557a40,40,0,0,1,40-40,40,40,0,0,1,40,40v18.557a40.473,40.473,0,0,0,.226,4.244,40,40,0,0,0,39.774,35.756,40,40,0,0,0,39.774-35.756,40.473,40.473,0,0,0,.226-4.244V3260.89A160,160,0,0,0-2778.92,3100.89Z" fill="#fd89d2"/>
            <circle id="Ellipse_325" data-name="Ellipse 325" cx="40" cy="40" r="40" transform="translate(-2858.92 3616.646)" fill="#fd89d2"/>
          </g>
        </g>
      </g>
      <g id="Group_2212" data-name="Group 2212">
        <path id="Path_793" data-name="Path 793" d="M-1978.92,3260.89a160,160,0,0,0-160-160,160,160,0,0,0-160,160c0,.355.011.706.013,1.06h-.013v314.738h0v324.2a160,160,0,0,0,160,160,160,160,0,0,0,160-160c0-3.507-.125-6.984-.348-10.434h.348V3426.688h0V3261.95h-.014C-1978.931,3261.6-1978.92,3261.245-1978.92,3260.89Z" fill="#031798"/>
        <g id="Group_2211" data-name="Group 2211">
          <path id="Path_794" data-name="Path 794" d="M-1978.92,3260.89a160,160,0,0,0-160-160,160,160,0,0,0-160,160c0,.355.011.706.013,1.06h-.013v314.738a40,40,0,0,0,40,40,40,40,0,0,0,40-39.993V3426.688a39.807,39.807,0,0,1,7.409-23.177,39.939,39.939,0,0,1,32.591-16.823,40.005,40.005,0,0,1,39.576,34.2c.142,0,.282,0,.424,0h0v65.832a40,40,0,0,0,40,39.966,40,40,0,0,0,40-40v-60a40,40,0,0,1,40-40,40,40,0,0,1,40,40V3261.95h-.013C-1978.931,3261.6-1978.92,3261.245-1978.92,3260.89Z" fill="#fd89d2"/>
          <circle id="Ellipse_326" data-name="Ellipse 326" cx="40" cy="40" r="40" transform="translate(-2138.92 3808.089)" fill="#fd89d2"/>
        </g>
      </g>
    </g>
  </g>
</svg>
