<svg xmlns="http://www.w3.org/2000/svg" xmlns:xlink="http://www.w3.org/1999/xlink" width="2184" height="960" viewBox="0 0 2184 960">
  <defs>
    <clipPath id="clip-path">
      <rect id="Rectangle_1360" data-name="Rectangle 1360" width="2184" height="960" transform="translate(-11125 -12732)" fill="#fff" stroke="#707070" stroke-width="1"/>
    </clipPath>
  </defs>
  <g id="Mask_Group_78" data-name="Mask Group 78" transform="translate(11125 12732)" clip-path="url(#clip-path)">
    <g id="Group_2218" data-name="Group 2218" transform="translate(3303.965 81.197)">
      <g id="Group_2214" data-name="Group 2214" transform="translate(-8116.521 -16411.693)">
        <path id="Path_795" data-name="Path 795" d="M-4815.783,3645.359l.031.031A159.5,159.5,0,0,0-4928.92,3598.5a160,160,0,0,0-160,160,159.5,159.5,0,0,0,46.894,113.168l-.031-.031Z" fill="#fd6145"/>
        <path id="Path_796" data-name="Path 796" d="M-4175.783,3871.633l-.036.036a159.5,159.5,0,0,0,46.9-113.173,160,160,0,0,0-160-160,159.5,159.5,0,0,0-113.162,46.889l.025-.026Z" fill="#fd6145"/>
        <path id="Path_797" data-name="Path 797" d="M-5042.057,4285.359l.026-.025A159.5,159.5,0,0,0-5088.92,4398.5a160,160,0,0,0,160,160,159.5,159.5,0,0,0,113.172-46.9l-.035.036Z" fill="#fd6145"/>
        <path id="Path_798" data-name="Path 798" d="M-4402.057,4511.633l-.03-.031A159.5,159.5,0,0,0-4288.92,4558.5a160,160,0,0,0,160-160,159.5,159.5,0,0,0-46.862-113.137Z" fill="#fd6145"/>
        <path id="Path_799" data-name="Path 799" d="M-4382.646,4078.5l206.827-206.827.036-.036-226.273-226.273-.025.026-206.838,206.837-206.833-206.832-.031-.031-226.273,226.273.031.031,206.833,206.833-206.838,206.838-.025.025,226.273,226.273.036-.036,206.828-206.828,206.833,206.833.031.031,226.274-226.273Z" fill="#290000"/>
        <path id="Path_800" data-name="Path 800" d="M-4608.92,3918.5a160,160,0,0,0-160,160,160,160,0,0,0,160,160,160,160,0,0,0,160-160A160,160,0,0,0-4608.92,3918.5Zm54.138,185.854a19.935,19.935,0,0,1,5.862,14.146,20,20,0,0,1-20,20,19.944,19.944,0,0,1-14.143-5.858l-25.857-25.858-25.856,25.857a19.941,19.941,0,0,1-14.144,5.859,20,20,0,0,1-20-20,19.937,19.937,0,0,1,5.861-14.145l25.855-25.855-25.858-25.857a19.941,19.941,0,0,1-5.858-14.143,20,20,0,0,1,20-20,19.944,19.944,0,0,1,14.147,5.862l25.853,25.854,25.854-25.854a19.937,19.937,0,0,1,14.146-5.862,20,20,0,0,1,20,20,19.94,19.94,0,0,1-5.859,14.144l-25.857,25.856Z" fill="#fd6145"/>
      </g>
      <g id="Group_2217" data-name="Group 2217" transform="translate(-8116.521 -16411.693)">
        <g id="Group_2216" data-name="Group 2216">
          <g id="Group_2215" data-name="Group 2215">
            <path id="Path_801" data-name="Path 801" d="M-6152.444,3598.5a160,160,0,0,0-160,160v320h320v-320A160,160,0,0,0-6152.444,3598.5Z" fill="#fd6145"/>
            <path id="Path_802" data-name="Path 802" d="M-5512.444,3598.5a160,160,0,0,0-160,160v320h320v-320A160,160,0,0,0-5512.444,3598.5Z" fill="#fd6145"/>
          </g>
          <path id="Path_803" data-name="Path 803" d="M-5832.444,4238.5a160,160,0,0,1-160-160h-320c0,265.1,214.9,480,480,480s480-214.9,480-480h-320A160,160,0,0,1-5832.444,4238.5Z" fill="#290000"/>
        </g>
        <path id="Path_804" data-name="Path 804" d="M-6098.305,3784.351l-25.855-25.855,25.856-25.855a19.942,19.942,0,0,0,5.86-14.145,20,20,0,0,0-20-20,19.939,19.939,0,0,0-14.145,5.861l-25.855,25.855-25.855-25.855a19.938,19.938,0,0,0-14.145-5.861,20,20,0,0,0-20,20,19.935,19.935,0,0,0,5.86,14.144l25.856,25.856-25.856,25.856a19.937,19.937,0,0,0-5.86,14.144,20,20,0,0,0,20,20,19.938,19.938,0,0,0,14.145-5.86l25.855-25.856,25.856,25.856a19.936,19.936,0,0,0,14.144,5.86,20,20,0,0,0,20-20A19.937,19.937,0,0,0-6098.305,3784.351Z" fill="#290000"/>
      </g>
    </g>
  </g>
</svg>
