<svg xmlns="http://www.w3.org/2000/svg" width="48" height="48" viewBox="0 0 48 48"><rect width="48" height="48" fill="#290000"/><path d="M15.667,34.419h0a18.276,18.276,0,0,1-4.9-1.223A17.635,17.635,0,0,1,5.1,29.5a17,17,0,0,1-3.739-5.479A16.734,16.734,0,0,1,0,17.307v-.1A17.008,17.008,0,0,1,5.144,4.938,17.961,17.961,0,0,1,15.667.005V8.48a7.858,7.858,0,0,0-1.239.436,8.329,8.329,0,0,0-4.4,4.765,9.875,9.875,0,0,0-.6,3.434v.094a9.513,9.513,0,0,0,.629,3.449A8.978,8.978,0,0,0,11.8,23.515a8.382,8.382,0,0,0,2.7,1.967,7.764,7.764,0,0,0,1.169.426v8.511Zm4.594-.008h0V25.93a7.993,7.993,0,0,0,3.891-2.358,8.954,8.954,0,0,0,1.718-2.834,9.5,9.5,0,0,0,.623-3.431v-.1a9.508,9.508,0,0,0-.623-3.431A8.882,8.882,0,0,0,24.1,10.919a8.751,8.751,0,0,0-2.723-1.978,7.825,7.825,0,0,0-1.12-.413V0a18.214,18.214,0,0,1,4.9,1.223,17.614,17.614,0,0,1,5.676,3.694A17.063,17.063,0,0,1,34.571,10.4a16.753,16.753,0,0,1,1.356,6.714V17.2a17,17,0,0,1-5.143,12.274A18.006,18.006,0,0,1,25.066,33.2a18.207,18.207,0,0,1-4.805,1.215Z" transform="translate(6.036 6.79)" fill="#fd89d2" stroke="rgba(0,0,0,0)" stroke-miterlimit="10" stroke-width="1"/></svg>